<svg width="319" height="47" viewBox="0 0 319 47" fill="none" xmlns="http://www.w3.org/2000/svg">
<g clip-path="url(#clip0_3_28)">
<path d="M0 0.767998H14.976C18.7733 0.767998 21.9093 1.87733 24.384 4.096C26.8587 6.31467 28.096 9.19467 28.096 12.736C28.096 16.4053 26.8587 19.328 24.384 21.504C21.952 23.68 18.816 24.768 14.976 24.768H4.608V45.248H0V0.767998ZM4.608 5.12V20.416H14.976C17.4507 20.416 19.4347 19.7333 20.928 18.368C22.464 17.0027 23.232 15.1253 23.232 12.736C23.232 10.2613 22.4853 8.384 20.992 7.104C19.4987 5.78133 17.4933 5.12 14.976 5.12H4.608Z" fill="black"/>
<path d="M80.3775 5.12H57.4655V19.776H76.1535V24.128H57.4655V40.896H80.5695V45.248H52.8575V0.767998H80.3775V5.12Z" fill="black"/>
<path d="M134.074 5.12H121.274V45.248H116.666V5.12H103.866V0.767998H134.074V5.12Z" fill="black"/>
<path d="M158.135 0.767998H173.751C177.847 0.767998 181.111 1.87733 183.543 4.096C186.018 6.272 187.255 9.152 187.255 12.736C187.255 15.5093 186.423 17.92 184.759 19.968C183.138 22.016 181.026 23.3813 178.423 24.064L189.175 45.248H183.927L173.687 24.768H162.743V45.248H158.135V0.767998ZM162.743 5.12V20.416H173.751C176.61 20.416 178.807 19.7333 180.343 18.368C181.922 17.0027 182.711 15.1253 182.711 12.736C182.711 10.2613 181.9 8.384 180.279 7.104C178.7 5.78133 176.524 5.12 173.751 5.12H162.743Z" fill="black"/>
<path d="M236.413 0C242.557 0 247.912 2.26133 252.477 6.784C257.085 11.264 259.389 16.6613 259.389 22.976C259.389 29.1627 257.149 34.5173 252.669 39.04C248.232 43.52 242.813 45.8453 236.413 46.016C230.269 46.016 224.893 43.7547 220.285 39.232C215.677 34.7093 213.373 29.2907 213.373 22.976C213.373 16.832 215.634 11.4773 220.157 6.912C224.68 2.304 230.098 0 236.413 0ZM236.413 4.608C231.378 4.608 227.09 6.42133 223.549 10.048C220.008 13.632 218.237 17.9413 218.237 22.976C218.237 28.0533 220.008 32.4053 223.549 36.032C227.09 39.616 231.378 41.408 236.413 41.408C241.405 41.408 245.672 39.616 249.213 36.032C252.754 32.4053 254.525 28.0533 254.525 22.976C254.525 17.9413 252.754 13.632 249.213 10.048C245.672 6.42133 241.405 4.608 236.413 4.608Z" fill="black"/>
<path d="M299.591 46.528L279.751 0.767998H284.871L299.591 35.648L314.311 0.767998H319.431L299.591 46.528Z" fill="black"/>
</g>
<defs>
<clipPath id="clip0_3_28">
<rect width="319" height="47" fill="white"/>
</clipPath>
</defs>
</svg>
