<?xml version="1.0" encoding="utf-8"?>
<!-- Generator: Adobe Illustrator 21.0.2, SVG Export Plug-In . SVG Version: 6.00 Build 0)  -->
<svg version="1.1" id="Layer_1" xmlns="http://www.w3.org/2000/svg" xmlns:xlink="http://www.w3.org/1999/xlink" x="0px" y="0px"
	 viewBox="0 0 679.5 46.4" style="enable-background:new 0 0 679.5 46.4;" xml:space="preserve">
<g>
	<g>
		<path d="M0.7,45.7V0.8h15.1c3.8,0,7,1.1,9.5,3.3c2.5,2.3,3.8,5.2,3.8,8.7c0,3.7-1.3,6.6-3.8,8.8s-5.6,3.3-9.5,3.3H5.3v20.6H0.7
			V45.7z M5.3,20.6h10.5c2.5,0,4.5-0.7,6.1-2.1c1.5-1.4,2.3-3.3,2.3-5.7c0-2.5-0.7-4.4-2.2-5.7s-3.5-2-6.1-2H5.3V20.6z"/>
		<path d="M45.6,45.7V0.8h27.8v4.4H50.2V20h18.9v4.4H50.2v16.9h23.3v4.4H45.6z"/>
		<path d="M88.6,5.2V0.8h30.5v4.4h-12.9v40.5h-4.6V5.2H88.6z"/>
		<path d="M135,45.7V0.8h15.8c4.1,0,7.4,1.1,9.9,3.3s3.7,5.1,3.7,8.7c0,2.8-0.8,5.2-2.5,7.3s-3.8,3.5-6.5,4.1l10.9,21.4H161
			L150.7,25h-11.1v20.6H135V45.7z M139.6,20.6h11.1c2.9,0,5.1-0.7,6.7-2c1.6-1.4,2.4-3.3,2.4-5.7c0-2.5-0.8-4.4-2.4-5.7
			c-1.6-1.3-3.8-2-6.6-2h-11.1L139.6,20.6L139.6,20.6z"/>
		<path d="M182.3,23.2c0-6.2,2.3-11.6,6.8-16.2c4.6-4.6,10-7,16.4-7c6.2,0,11.6,2.3,16.2,6.8c4.7,4.5,7,10,7,16.3
			c0,6.2-2.3,11.6-6.8,16.2c-4.5,4.5-9.9,6.9-16.4,7.1c-6.2,0-11.6-2.3-16.3-6.9C184.6,35,182.3,29.5,182.3,23.2z M187.2,23.2
			c0,5.1,1.8,9.5,5.4,13.2c3.6,3.6,7.9,5.4,13,5.4s9.4-1.8,12.9-5.4c3.6-3.7,5.4-8.1,5.4-13.2c0-5-1.8-9.4-5.4-13
			c-3.5-3.7-7.8-5.5-12.9-5.5c-5.1,0-9.4,1.8-13,5.5C189,13.8,187.2,18.1,187.2,23.2z"/>
		<path d="M240.8,0.8h5.2L260.9,36l14.8-35.2h5.1l-20,46.2L240.8,0.8z"/>
		<path d="M321.9,36c0-5.4,2.4-9,7.3-10.8l4.4-1.6c-2.4-0.9-4.3-2.4-5.7-4.5s-2.2-4.4-2.2-7c0-3.3,1.2-6.1,3.7-8.5
			c2.4-2.4,5.3-3.6,8.6-3.6c4,0,7.1,1.7,9.6,5l-4,1.6c-0.4-0.7-1.1-1.3-2.2-1.8s-2.2-0.7-3.4-0.7c-2.1,0-3.9,0.8-5.5,2.3
			s-2.4,3.4-2.5,5.7c0.1,2.8,1.3,5.2,3.6,7.1c2.4,2,4.8,2.6,7.1,1.6l9.6-3.6l2.2,3.8l-7.6,2.9l12.6,21.7h-5.4l-2.5-4.4
			c-7.7,3.5-13.1,5.3-16.4,5.2c-2.8-0.1-5.4-1.1-7.7-3.1C323.2,41.3,322,38.9,321.9,36z M326.5,36c0,1.8,0.6,3.2,1.9,4.3
			s2.8,1.7,4.7,1.8c1.5,0.1,3.3-0.3,5.2-0.9c2.8-1,5.9-2.2,9.1-3.6l-6.9-11.8l-9,3.4C328.2,30.3,326.5,32.6,326.5,36z"/>
		<path d="M399.4,29.1V0.8h4.6v28.3c0,3.6,1.2,6.6,3.7,9c2.5,2.5,5.5,3.7,9,3.7c3.6,0,6.6-1.3,9-3.8c2.5-2.5,3.7-5.5,3.7-9V0.8h4.6
			v28.3c0,4.8-1.7,8.9-5.1,12.3c-3.4,3.4-7.5,5.1-12.2,5.1c-5,0-9.1-1.7-12.4-5.1C401.1,37.9,399.4,33.8,399.4,29.1z"/>
		<path d="M449.8,5.2V0.8h30.5v4.4h-12.9v40.5h-4.6V5.2H449.8z"/>
		<path d="M496.2,45.7V0.8h14.4c3.1,0,5.7,1.1,8,3.4s3.5,4.9,3.5,8.1c0,3.1-1.2,5.8-3.5,8.1c2.3,1.2,4.1,2.8,5.4,4.9
			c1.3,2.1,2.1,4.4,2.2,7c0,3.7-1.3,6.9-3.9,9.5c-2.6,2.6-5.8,3.9-9.6,3.9C512.7,45.7,496.2,45.7,496.2,45.7z M500.8,19.1h9.8
			c1.8,0,3.3-0.7,4.6-2s2-2.9,2-4.9c0-1.9-0.6-3.6-1.9-4.9c-1.2-1.3-2.8-2-4.7-2h-9.8L500.8,19.1L500.8,19.1z M500.8,41h11.8
			c2.4,0,4.4-0.8,6.1-2.5c1.7-1.7,2.6-3.8,2.6-6.3c0-2.4-0.8-4.4-2.5-6.1c-1.6-1.7-3.6-2.6-6.1-2.6h-11.8L500.8,41L500.8,41z"/>
		<path d="M544.4,45.7V0.8h27.8v4.4H549V20h18.9v4.4H549v16.9h23.3v4.4H544.4z"/>
		<path d="M591.7,45.7V0.8h15.8c4.1,0,7.4,1.1,9.9,3.3s3.7,5.1,3.7,8.7c0,2.8-0.8,5.2-2.5,7.3s-3.8,3.5-6.5,4.1L623,45.7h-5.3
			L607.4,25h-11.1v20.6h-4.6V45.7z M596.3,20.6h11.1c2.9,0,5.1-0.7,6.7-2c1.6-1.4,2.4-3.3,2.4-5.7c0-2.5-0.8-4.4-2.4-5.7
			c-1.6-1.3-3.8-2-6.6-2h-11.1v15.4H596.3z"/>
		<path d="M638.6,23.2c0-6.2,2.3-11.6,6.8-16.2c4.6-4.6,10.1-7,16.4-7c3.1,0,6,0.5,8.6,1.6c2.6,1,4.7,2.3,6.3,3.9L672.6,9
			c-1.3-1.2-2.9-2.3-4.9-3.1s-3.9-1.2-5.8-1.2c-5.1,0-9.4,1.8-13,5.5c-3.6,3.6-5.4,8-5.4,13c0,5.1,1.8,9.5,5.4,13.2
			c3.5,3.6,7.9,5.4,13,5.4c5.7,0,10-2,13-5.9V25.4h-13V21h17.6v17.2c-1.9,2.5-4.4,4.4-7.4,6c-3,1.5-6.4,2.3-10.2,2.3
			c-6.2,0-11.6-2.3-16.3-6.9C640.9,35,638.6,29.5,638.6,23.2z"/>
	</g>
</g>
</svg>
