<svg width="320" height="95" viewBox="0 0 320 95" fill="none" xmlns="http://www.w3.org/2000/svg">
<g clip-path="url(#clip0_3_5)">
<path d="M35.4042 12.464H28.1562L26.2602 17H24.3402L31.7802 -0.160004L39.2202 17H37.3002L35.4042 12.464ZM34.7082 10.832L31.7802 3.848L28.8522 10.832H34.7082Z" fill="white"/>
<path d="M47.5213 0.319996H52.7293C54.9533 0.319996 56.8973 1.136 58.5613 2.768C60.2253 4.384 61.0573 6.344 61.0573 8.648C61.0573 10.92 60.2493 12.88 58.6333 14.528C57.0333 16.176 55.0653 17 52.7293 17H47.5213V0.319996ZM49.2493 1.952V15.368H52.7293C54.4733 15.368 55.9933 14.704 57.2893 13.376C58.5853 12.048 59.2333 10.472 59.2333 8.648C59.2333 6.872 58.6013 5.312 57.3373 3.968C56.0733 2.624 54.5373 1.952 52.7293 1.952H49.2493Z" fill="white"/>
<path d="M75.7423 17.48L68.3023 0.319996H70.2223L75.7423 13.4L81.2623 0.319996H83.1823L75.7423 17.48Z" fill="white"/>
<path d="M98.995 0.0319967C101.299 0.0319967 103.307 0.879997 105.019 2.576C106.747 4.256 107.611 6.28 107.611 8.648C107.611 10.968 106.771 12.976 105.091 14.672C103.427 16.352 101.395 17.224 98.995 17.288C96.691 17.288 94.675 16.44 92.947 14.744C91.219 13.048 90.355 11.016 90.355 8.648C90.355 6.344 91.203 4.336 92.899 2.624C94.595 0.895997 96.627 0.0319967 98.995 0.0319967ZM98.995 1.76C97.107 1.76 95.499 2.44 94.171 3.8C92.843 5.144 92.179 6.76 92.179 8.648C92.179 10.552 92.843 12.184 94.171 13.544C95.499 14.888 97.107 15.56 98.995 15.56C100.867 15.56 102.467 14.888 103.795 13.544C105.123 12.184 105.787 10.552 105.787 8.648C105.787 6.76 105.123 5.144 103.795 3.8C102.467 2.44 100.867 1.76 98.995 1.76Z" fill="white"/>
<path d="M121.283 8.84L118.547 11.84V17H116.819V0.319996H118.547V9.464L126.899 0.319996H129.083L122.435 7.592L129.539 17H127.403L121.283 8.84Z" fill="white"/>
<path d="M147.557 12.464H140.309L138.413 17H136.493L143.933 -0.160004L151.373 17H149.453L147.557 12.464ZM146.861 10.832L143.933 3.848L141.005 10.832H146.861Z" fill="white"/>
<path d="M168.223 1.952H163.423V17H161.695V1.952H156.895V0.319996H168.223V1.952Z" fill="white"/>
<path d="M186.606 1.952H178.494V7.448H185.262V9.08H178.494V17H176.766V0.319996H186.606V1.952Z" fill="white"/>
<path d="M197.557 17H195.781V0.319996H197.557V17Z" fill="white"/>
<path d="M207.715 0.319996H213.571C215.107 0.319996 216.331 0.735996 217.243 1.568C218.171 2.384 218.635 3.464 218.635 4.808C218.635 5.848 218.323 6.752 217.699 7.52C217.091 8.288 216.299 8.8 215.323 9.056L219.355 17H217.387L213.547 9.32H209.443V17H207.715V0.319996ZM209.443 1.952V7.688H213.571C214.643 7.688 215.467 7.432 216.043 6.92C216.635 6.408 216.931 5.704 216.931 4.808C216.931 3.88 216.627 3.176 216.019 2.696C215.427 2.2 214.611 1.952 213.571 1.952H209.443Z" fill="white"/>
<path d="M244.389 17H242.661V4.208L236.685 11.144L230.709 4.208V17H228.981V-0.160004L236.685 8.744L244.389 -0.160004V17Z" fill="white"/>
<path d="M263.888 12.464H256.64L254.744 17H252.824L260.264 -0.160004L267.704 17H265.784L263.888 12.464ZM263.192 10.832L260.264 3.848L257.336 10.832H263.192Z" fill="white"/>
<path d="M287.981 13.064V0.319996H289.709V17.48L277.853 4.256V17H276.125V-0.160004L287.981 13.064Z" fill="white"/>
<path d="M0.384003 49.52H15.36C19.1573 49.52 22.2933 50.6293 24.768 52.848C27.2427 55.0667 28.48 57.9467 28.48 61.488C28.48 65.1573 27.2427 68.08 24.768 70.256C22.336 72.432 19.2 73.52 15.36 73.52H4.992V94H0.384003V49.52ZM4.992 53.872V69.168H15.36C17.8347 69.168 19.8187 68.4853 21.312 67.12C22.848 65.7547 23.616 63.8773 23.616 61.488C23.616 59.0133 22.8693 57.136 21.376 55.856C19.8827 54.5333 17.8773 53.872 15.36 53.872H4.992Z" fill="white"/>
<path d="M80.7615 53.872H57.8495V68.528H76.5375V72.88H57.8495V89.648H80.9535V94H53.2415V49.52H80.7615V53.872Z" fill="white"/>
<path d="M134.458 53.872H121.658V94H117.05V53.872H104.25V49.52H134.458V53.872Z" fill="white"/>
<path d="M158.519 49.52H174.135C178.231 49.52 181.495 50.6293 183.927 52.848C186.402 55.024 187.639 57.904 187.639 61.488C187.639 64.2613 186.807 66.672 185.143 68.72C183.522 70.768 181.41 72.1333 178.807 72.816L189.559 94H184.311L174.071 73.52H163.127V94H158.519V49.52ZM163.127 53.872V69.168H174.135C176.994 69.168 179.191 68.4853 180.727 67.12C182.306 65.7547 183.095 63.8773 183.095 61.488C183.095 59.0133 182.284 57.136 180.663 55.856C179.084 54.5333 176.908 53.872 174.135 53.872H163.127Z" fill="white"/>
<path d="M236.797 48.752C242.941 48.752 248.296 51.0133 252.861 55.536C257.469 60.016 259.773 65.4133 259.773 71.728C259.773 77.9147 257.533 83.2693 253.053 87.792C248.616 92.272 243.197 94.5973 236.797 94.768C230.653 94.768 225.277 92.5067 220.669 87.984C216.061 83.4613 213.757 78.0427 213.757 71.728C213.757 65.584 216.018 60.2293 220.541 55.664C225.064 51.056 230.482 48.752 236.797 48.752ZM236.797 53.36C231.762 53.36 227.474 55.1733 223.933 58.8C220.392 62.384 218.621 66.6933 218.621 71.728C218.621 76.8053 220.392 81.1573 223.933 84.784C227.474 88.368 231.762 90.16 236.797 90.16C241.789 90.16 246.056 88.368 249.597 84.784C253.138 81.1573 254.909 76.8053 254.909 71.728C254.909 66.6933 253.138 62.384 249.597 58.8C246.056 55.1733 241.789 53.36 236.797 53.36Z" fill="white"/>
<path d="M299.975 95.28L280.135 49.52H285.255L299.975 84.4L314.695 49.52H319.815L299.975 95.28Z" fill="white"/>
</g>
<defs>
<clipPath id="clip0_3_5">
<rect width="320" height="95" fill="white"/>
</clipPath>
</defs>
</svg>
